# xmcd
#
# Track frame offsets:
# 150
# 14775
# 30840
# 45972
# 58650
# 70285
# 87457
# 100745
# 114650
#
# Disc length: 1775 seconds
#
#
# Revision: 0
# Processed by: cddbd v1.5.2PL0 Copyright (c) Steve Scherf et al.
# Submitted via: FreeRIP 2.941 
#
DISCID=6f06ed09
DTITLE=Various Artist - Let's All Line Dance
DYEAR=1900
DGENRE=Dance
TTITLE0=Anchy Breaky Heart
TTITLE1=Redneck girl
TTITLE2=Watermelon Crawl
TTITLE3=Trouble
TTITLE4=White Lightning
TTITLE5=Chattahooche
TTITLE6=Reggae Cowboy
TTITLE7=Boot Scootin Boogie
TTITLE8=Earhtquake
EXTD=
EXTT0=
EXTT1=
EXTT2=
EXTT3=
EXTT4=
EXTT5=
EXTT6=
EXTT7=
EXTT8=
PLAYORDER=
